<?xml version="1.0" standalone="no"?><!DOCTYPE svg PUBLIC "-//W3C//DTD SVG 1.1//EN" "http://www.w3.org/Graphics/SVG/1.1/DTD/svg11.dtd"><svg class="icon" width="200px" height="200.00px" viewBox="0 0 1024 1024" version="1.1" xmlns="http://www.w3.org/2000/svg"><path fill="#8a8a8a" d="M425.7 925.4c-22.5 0-43-2.1-62.3-6.3-35-7.5-68.8-22.1-97.5-42.4l-0.9-0.7-0.9-0.8c-0.2-0.2-0.5-0.5-0.8-0.7-30-21.2-56.2-49.7-75.6-82.5-25.8-43.3-39-95-37.4-145.5 1.2-46.8 14.8-92.7 39.3-132.8 22.2-36.5 53.1-67.5 89.4-89.8 26.2-16.3 55.1-27.8 85.8-34.3 30.8-6.5 61.9-7.5 92.4-3.1l19.5 2.8 0.2 19.7v12.1c0 6.5-0.1 12.6 0.2 18.6 0.5 8.8 0.4 17.4 0.3 25.7 0 5-0.1 9.7 0 14.4v67.6l-0.1 32.5-30.6-10.8c-11.5-4.1-25.7-4.4-40-1h-0.2c-18.6 4.3-35 12.1-47.4 22.6-7.8 6.5-14.2 14.5-18.6 23.2l-0.1 0.2c-7.6 14.7-10.8 32.9-9 51.3 2 16.7 9.1 32.8 20.1 45.3l0.2 0.3c7 8.2 16.1 15.8 28 23 26.4 14.7 61.7 13.3 87.9-3.5l0.3-0.2c25.5-15.8 41.9-45.1 42-74.7v-203-138.1c0.3-39.2 0.3-79 0.3-117.6v-77.6l0.1-23h181.1l-0.6 23.6c-0.1 5.4 0.2 11 0.8 16.2l2.5 13c3 15.3 8.8 31.5 17.2 48.1 12.8 24.6 30.4 44.1 50.9 56.6l0.3 0.2c2.8 1.8 5 3.7 6.5 5.4 16.5 9.9 33.7 16.8 51.3 20.5l0.3 0.1c9.7 2.1 20.7 3.3 34.5 3.7l22.3 0.6 0.1 22.3v11.1c0 6.3 0 12.3 0.1 18.4v0.3c0.2 22.9 0.2 46.1 0.1 68.6v59l-22.9 0.2c-56.1 0.5-112.3-13.5-162-40.1 0 61.2 0.2 134 0.8 207.6v0.1c0 2.9 0 5.8 0.1 8.7 0.1 8.4 0.2 17.1-0.4 26.1-2.9 42.7-16.4 86-39 125.1-19.7 33.9-46 63.4-75.9 85.2-40 29.5-89.9 46.5-140.4 47.9-4.3 0.5-8.3 0.6-12.3 0.6z m-132.4-85.8c23.5 16.4 51 28.3 79.7 34.4h0.1c19.1 4.1 39.8 5.8 63.4 5h0.1c41.2-1.1 81.8-14.9 114.4-38.9l0.1-0.1c24.8-18.1 46.7-42.7 63.2-71.1 19.1-33 30.5-69.4 32.9-105.2v-0.1c0.5-7.1 0.4-14.4 0.3-22.2 0-3.1-0.1-6.1-0.1-9.2-0.7-91.1-0.8-181-0.8-249.2v-44.6l36.4 25.9c43.5 31 95.5 49.5 148.5 53.3v-12.5c0-22.3 0.1-45.3-0.1-67.9-0.1-2.9-0.1-5.7-0.1-8.6-7.4-0.8-14.2-1.9-20.7-3.3-23.7-5-46.8-14.4-68.7-28.1l-2.7-1.7-2.7-3c-27.1-16.9-50-42.3-66.3-73.8l-0.1-0.1C662.8 204.2 657 190 653 176l-2.1-0.1-3-18.3c-0.7-4.4-1.5-9.5-2.1-14.9h-89.7v54.4c0 38.6 0.1 78.6-0.3 117.9v340.8c0 22.4-6 45-17.4 65.1-11.3 20-27.2 36.8-46.2 48.6-19.7 12.6-42.8 19.8-66.9 20.7-24.5 1-48.2-4.6-68.6-16.1l-0.7-0.4c-16.2-9.9-29.1-20.6-39.4-32.7-17.1-19.5-28.1-44.6-31.1-70.5v-0.4c-2.7-27.7 2.1-54.4 14-77.2 7.2-14.1 17.6-27.1 30-37.5 17.9-15.1 40.9-26.2 66.5-32.2 11.9-2.9 23.8-4 35.3-3.5v-17.2-22.2c-0.1-5.2 0-10.3 0-15.3 0.1-8 0.1-15.6-0.3-23v-0.3c-0.2-3.9-0.2-7.8-0.2-11.6-44.3-2.2-89.8 9.4-127.6 32.9l-0.1 0.1c-30.1 18.5-55.7 44.3-74.2 74.6-20.3 33.2-31.6 71.2-32.6 110v0.2c-1.4 41.9 9.6 84.7 31 120.6 16.4 27.5 38.3 51.4 63.3 68.9l0.9 0.6 0.8 0.7c0.1 0.2 0.6 0.6 1 0.9z"  /></svg>