<?xml version="1.0" standalone="no"?><!DOCTYPE svg PUBLIC "-//W3C//DTD SVG 1.1//EN" "http://www.w3.org/Graphics/SVG/1.1/DTD/svg11.dtd"><svg class="icon" width="200px" height="200.00px" viewBox="0 0 1024 1024" version="1.1" xmlns="http://www.w3.org/2000/svg"><path d="M32 32m192 0l576 0q192 0 192 192l0 576q0 192-192 192l-576 0q-192 0-192-192l0-576q0-192 192-192Z" fill="#190D18" /><path d="M815.456 455.488v-109.376a154.4 154.4 0 0 1-154.304-154.24h-109.376V629.44a93.28 93.28 0 1 1-66.08-89.216v-111.552a202.592 202.592 0 1 0 175.52 200.768v-223.808a262.304 262.304 0 0 0 154.24 49.888z" fill="#E7275E" /><path d="M783.52 423.584V314.24A154.4 154.4 0 0 1 629.28 160h-109.344v437.504a93.28 93.28 0 1 1-66.08-89.184v-111.552a202.624 202.624 0 1 0 175.424 200.736v-223.808a262.272 262.272 0 0 0 154.24 49.92z" fill="#38BAC3" /><path d="M691.648 283.776a154.4 154.4 0 0 1-58.976-91.904h-80.832V629.44a93.216 93.216 0 0 1-173.152 48 93.216 93.216 0 0 1 75.2-169.088V426.88a202.496 202.496 0 0 0-153.6 328.896 202.56 202.56 0 0 0 329.024-158.304v-223.808a262.272 262.272 0 0 0 154.24 49.92v-80.832a154.624 154.624 0 0 1-91.904-59.008z" fill="#FFFFFF" /></svg>