<?xml version="1.0" standalone="no"?><!DOCTYPE svg PUBLIC "-//W3C//DTD SVG 1.1//EN" "http://www.w3.org/Graphics/SVG/1.1/DTD/svg11.dtd"><svg class="icon" width="200px" height="200.00px" viewBox="0 0 1024 1024" version="1.1" xmlns="http://www.w3.org/2000/svg"><path d="M512 58.4c76 0 148 28 204 77.6 54.4 48 87.2 115.2 92.8 188l0.8 12 5.6 10.4c5.6 10.4 8.8 24 8.8 37.6v14.4l4.8 11.2c3.2 7.2 5.6 13.6 8 20.8l4.8 13.6 10.4 9.6c27.2 24.8 49.6 66.4 62.4 114.4 8.8 34.4 11.2 74.4 6.4 110.4-2.4 17.6-7.2 34.4-14.4 50.4-10.4-4-20.8-8-30.4-14.4l-47.2-28-30.4 45.6c-3.2 5.6-7.2 10.4-11.2 16l-36 48 50.4 33.6c23.2 15.2 36.8 33.6 36.8 50.4 0 17.6-14.4 36.8-40 52.8-33.6 20.8-81.6 32.8-131.2 32.8-47.2 0-92-10.4-125.6-29.6l-28.8-16-28 16c-33.6 19.2-78.4 29.6-125.6 29.6-49.6 0-97.6-12-131.2-33.6-25.6-16-40-35.2-40-52.8 0-16.8 13.6-35.2 36.8-50.4l50.4-33.6-36-48c-4-4.8-7.2-10.4-11.2-16l-30.4-45.6-47.2 28c-9.6 5.6-19.2 10.4-30.4 14.4-7.2-16-12.8-32.8-14.4-50.4-4.8-36.8-3.2-74.4 6.4-110.4 12.8-47.2 35.2-89.6 62.4-114.4l10.4-9.6 4.8-13.6c2.4-6.4 4.8-13.6 8-20.8l4.8-11.2v-14.4c0-13.6 3.2-27.2 8.8-37.6l5.6-10.4 0.8-12c4.8-72 38.4-138.4 92.8-188 53.6-49.6 126.4-76.8 201.6-76.8z m0-56.8C324.8 1.6 171.2 141.6 158.4 320c-9.6 18.4-15.2 40.8-15.2 64.8v3.2c-3.2 8-6.4 16-8.8 24-33.6 31.2-62.4 80.8-79.2 141.6-28.8 108 4 236 55.2 236 2.4 0 4 0 6.4-0.8 18.4-4 40-12 61.6-24.8 4 6.4 8.8 12.8 12.8 18.4-38.4 25.6-62.4 60-62.4 97.6 0 79.2 102.4 143.2 228.8 143.2 59.2 0 113.6-14.4 154.4-37.6 40.8 23.2 94.4 37.6 154.4 37.6 126.4 0 228.8-64 228.8-143.2 0-37.6-23.2-72-62.4-97.6 4.8-5.6 8.8-12 12.8-18.4 21.6 12.8 44 20.8 61.6 24.8 2.4 0.8 4 0.8 6.4 0.8 51.2 0 84-127.2 55.2-236-16-60-45.6-110.4-79.2-141.6-3.2-8-5.6-16-8.8-24v-3.2c0-24-5.6-46.4-15.2-64.8C852.8 141.6 699.2 1.6 512 1.6z" /></svg>